<svg version="1.2" xmlns="http://www.w3.org/2000/svg" viewBox="0 0 2048 2048" width="2048" height="2048">
	<title>Masons</title>
	<style>
		.s0 { fill: #6B7280 }
	</style>
	<path class="s0" d="m1018 1967.8c-2.8-1-148.8-145.8-324.4-321.4-175.8-175.6-320.4-319.6-321.6-320-3.6-1.2-8.2 3.8-19 20.6-13.2 20.2-54.4 78-68 95-13.4 16.8-28.4 30.4-32.4 29.6-6.6-1.2-7.4-6.6-2.8-18.2 4.8-12 52.4-97.6 74.8-134.6 7.4-12.4 13.4-23.6 13.4-25 0-1.6-48.6-51.4-107.8-110.8-76-76-108.4-109.8-109.4-113.8-1-4-0.2-7.8 2-12.2 4.4-8 132.2-135.6 134.8-134.8 1.2 0.4 42.6 40.6 92.2 89.4 57.8 57 91.2 88.4 93.4 88 1.8-0.4 10-13 18.6-28.6 8.6-15.4 18.4-32.8 21.8-38.4 8.8-14.8 7.6-16.8-11.8-19.6-6.2-0.8-10.8-2.8-14-6.2-4.4-4.8-4.8-6.6-4.8-27.8 0-19.8 0.4-23.2 4-27 3.6-4 5.2-4.4 17-3.2 7.2 0.6 24.2 3.4 38 6 54.8 10.8 88.6 14 150 14 51.8 0 60.4-0.4 94.8-5.4 55.8-8.2 93-18.4 181.2-49.4 48.2-16.8 91.8-29.2 118.4-33.4 30.4-4.8 108-4.8 134.6 0 65.6 11.8 121.4 43 181.8 101.4 24.6 24 61 63.8 65 71.4 4.2 8 2.8 20-3.2 26.6-7 7.6-21 10.4-75.2 15-72.8 6.2-104.4 15-126.2 35-23 21.2-25.2 55.6-4.8 75.2 9.8 9.6 15.2 12.4 33.8 18.6 22.4 7.4 22.6 17.4 1 32.4-44.8 31.2-84.8 80.4-122.6 151.2-13.2 24.6-18.2 29.4-29.4 27.6-17.2-2.6-17.6-7.6-5.4-56.8 13.6-54.2 21.4-87.6 29.4-126.2 8.6-40.8 18.6-98.4 17.4-100.4-2.6-4.6-11.8 3-59 49.4-50.6 49.8-99.6 93.4-129.6 115.6-8.2 6.2-17.2 12.8-19.8 14.8-18.2 13.8-64.2 40-90.6 51.4-20 8.8-56.4 20.2-80.6 25.6-8.6 1.8-12.2 3.6-12.6 6.2-0.4 2.4 39.6 43.8 127 131.8 70.2 70.6 129.2 130 131.2 132 1.8 2 4.6 3.6 6 3.6 1.4 0 123-120.2 270.2-267.2l267.8-267-3.4-6.4c-1.8-3.6-9.2-15.4-16.4-26.4-7-11-26-42-42.2-69-27.4-46-43.2-72.2-57.2-94.6-3.8-6-9-11.2-13.8-13.6-4.4-2.2-24.8-20.8-45.2-41.4-49.4-49.6-78.2-69.6-123.8-86.2-34.2-12.6-87.6-19.6-131-17.4-50.8 2.4-87 9.2-185.6 34-144.2 36.4-188.6 43.4-277 43.4-59 0.2-91.2-2.8-137-12.2-21-4.4-61-15.4-66.4-18.2-8-4.4-12.8-23.6-10.4-42 2.8-20.8 11.2-22.2 51.2-9 28.8 9.6 75.4 19.2 93.6 19.2 8.4 0 12.2-1 14.4-3.4 4.4-5.2 11.4-17.6 82.6-147.6 51-93 125.6-229.2 138.6-253 3.8-7.2 14.2-26 23-42 8.8-16 19.4-35.4 23.6-43.4l7.6-14.4-5.8-16.6c-18.4-53-9.4-107.6 25.2-151.6 17.4-22.2 50.4-43.4 79.8-51 76.2-20 156.8 26.4 182.4 105 9.6 29.4 8.2 65.6-3.8 96.6l-6.2 16 6.2 12.4c3.2 6.6 16 30 28.2 51.8 12.2 21.8 22.2 40 22.2 40.6 0 0.6 3 6 6.8 12.2 6 10 43.4 77.6 56.8 102.4 12.8 24 33.8 62.6 41.4 76 4.6 8.2 15 27.2 23 42 8 14.8 20.4 37.8 27.6 51 7.2 13.2 15.8 29.4 19.4 36 3.4 6.6 8.6 16 11.4 21 2.8 5 13.2 23.8 23 42 10 18.2 22.4 40.6 27.6 50 5.4 9.4 16.6 29.6 25 45 39.2 71.6 61 111 67.2 121.4 3.8 6.2 6.8 11.6 6.8 12 0 3 46.2 82.8 48.8 84.6 2.6 1.6 19.8-14.8 94.8-89.6 50.2-50.2 92.6-91.4 94.2-91.4 4.2 0 133 130.2 136 137.6 2.4 5.6 2.4 7.4 0 12-1.6 3-51 53.8-109.8 113-58.8 59.2-107.4 108.6-107.8 109.6-0.8 2.4 3.6 13.8 7 17.8 1.2 1.6 6.4 10.2 11.4 19 4.8 8.8 20.6 36.4 35 61.2 26 45.2 38.4 69.2 38.4 74.6 0 4.4-6 5.6-11 2.4-11.8-7.8-49.2-56.4-88.4-114.6-12-18-20.4-28.6-22.4-28.6-2 0-145.2 142.4-318.2 316.2-173.2 174-317.6 318.4-321 320.8q-11.4 8.7-21 4.8zm317.6-380.4c169.6-169.6 308.4-309.8 308.4-311.4-0.2-5.8-45-73-49.2-73.6-2.8-0.4-78.6 74.4-281.8 277.6-152.8 153-279.8 279.2-281.8 280.4-3.4 1.8-25.2-19.4-180.4-174.6-97.2-97.2-178.2-177-180.2-177.4-2-0.4-11.6-3.4-21.6-6.8-65.8-22.2-109-77.2-109-139 0-24 2.6-36.2 12.2-55.6 8-16.4 24.2-35.8 35-41.6 26.2-14.6 30.4-15.8 52.4-16.8 23.6-1.2 36.2 1.4 51.2 10.2 11.8 6.8 24.2 21 30.6 34.6 5 10.6 5.6 13.8 5.6 34.6 0 21-0.6 23.8-5.4 33-10.6 20.2-33 35-52.6 35-16.2 0-25.8-7.6-28.2-22.4l-1.2-7.4 12.6-5.8c27-12.2 35.2-34 19.8-52.6-19.4-23.6-63-8.8-76 25.8-3.6 9.4-4.2 14.8-3.6 30.6 0.6 17 1.4 20.4 7.4 32.4 8.6 16.8 30.2 38.2 47 46 6.4 3 19.4 7.8 28.8 10.8 15.4 4.6 21 5.2 48.4 5.4 26.4 0 33.6-0.6 48-4.4 61-16.6 110.6-43.4 175-94.6 27.8-22 121-113.2 121-118.4 0-5.6-5-6.8-32-8-55.2-2.6-105.8-17.4-174-50.8-90.6-44.2-114.4-50.4-227.6-57.6-24.6-1.6-50.4-3.6-57.4-4.2-14.8-1.6-10.2-6.2-41.4 43.2-29.8 47.2-66.4 104.6-75.6 118-19.2 28.8-58.2 92.4-57.6 94.2 1.4 4.2 618.8 619.8 621.6 619.8 1.6 0 141.8-138.8 311.6-308.6zm434-434.8c46.4-47 84.2-86.8 84-88-0.4-1.4-13.6-16-29.4-32.6-18.8-19.8-30-30-32.8-30-4.6 0-159.4 153-159.4 157.6 0 1.6 3 7.8 6.8 14 3.8 6.4 13.4 22.6 21.4 36.4 15 25.8 16.8 27.8 21.8 28 1.6 0 41-38.4 87.6-85.4zm-1399 79c11-17.8 41.4-73.4 41.4-75.8 0-1.6-34.6-37.4-76.8-79.6-61.2-61-77.4-76.2-80-74.8-5.6 3-63.2 61.2-63.2 63.6 0 4 168.2 171 172.2 171 2 0 5-2 6.4-4.4zm652.6-152.6c0.8-2-2.2-6.8-8-13-21.4-23-29.2-43-29.2-74.8 0.2-12.2 1.4-23.4 3-28.2 2.4-6.6 2.4-8.4 0.2-10.6-2.2-2.2-7-1-28.4 6.6-14.2 5.2-29.4 11-33.8 13-4.4 2-26.4 10.6-49 19.2-22.6 8.6-41.6 16.6-42.4 17.6-3.6 5.4 1 8 65.4 37.2 23.4 10.6 56.6 22.2 83 29.2 28.2 7.4 37.6 8.2 39.2 3.8zm206.8-9.6c36.8-10.4 51.6-13.6 95-20.6 10-1.6 22-3.6 27-4.4 13.6-2.2 12.6-6-6.4-22.4-37.8-32.8-67.2-52-105.2-69-28.4-12.6-37-12-31.2 2.2 4.4 10.6 7 37.8 4.8 52.6-3.2 23-10.4 39-24.8 55.8-9 10.6-10.6 14.2-7.8 17.2 2 1.8 1.6 2 48.6-11.4zm-502.2-259.4c22.6-2.6 23-2.8 31-14.6 4-5.8 21.6-29.2 39.2-52.4 17.6-23 50.4-66.2 73-96 22.4-29.6 52-68.8 65.8-87 58-76 71.2-93.8 71.2-95.6 0-1-7.6-13-16.8-26.6-9.4-13.6-25.8-37.8-36.4-53.8-10.8-16-20.6-29.6-21.6-30.4-4.8-3.2-7.4-1-13.4 10.8-3.6 7-13.4 25-22 40.4-8.8 15.2-15.8 28-15.8 28.6 0 0.4-3.4 7-7.8 14.2-11.8 20.4-50.2 89-85.2 152.4-34.4 62.4-45.4 82.2-70 126-9 16-19.8 35.4-24 43-4.2 7.8-10.8 19.2-14.6 25.4-9.4 15.6-7.6 17.6 14.4 17.6 8.8 0 23.8-0.8 33-2zm637.8-16.8c0.4-1.8-4.8-13-11.8-24.8-6.8-11.8-17.2-30-22.8-40.4-5.6-10.4-16.4-29.8-24-43-7.4-13.2-23.4-42-35.4-64-12.2-22-25-45-28.6-51-6.8-11.6-47.6-85.4-85.6-155-30-54.8-32.6-59-36.6-59-1.8 0-6.6 2.6-10.6 5.8-8.6 6.8-28.2 16.8-39.2 20-4.4 1.4-15.6 3.6-25 4.8-20.2 2.8-21.6 5-11.6 18.2 8.8 11.6 31.4 44.2 67.6 96.4 3.8 5.8 25.4 36.6 48 68.6 22.6 32 47.8 68 56 79.8 8.2 12 24 34.8 35 50.6 11 15.8 24.4 35.4 29.8 43.2 5.4 8 11.8 15.2 14 15.8 2.4 0.6 7 2.4 10.2 3.8 3.4 1.4 10 4 15 6 8.8 3.6 24 12 42 23.4 9.8 6 12.6 6.2 13.6 0.8zm-494.4-6c19.8-4.8 57.4-14.2 83.8-20.8 92.4-23.2 116.6-26.8 184-27.6 29.8-0.4 54.6-0.8 55.6-0.8 5.4-0.2-0.8-10.2-50.8-82-4.2-6-27.4-39.2-51.2-73.8-24-34.6-45.2-63.8-47.2-65-3-1.8-4.4-1.4-7 2-1.8 2.4-14 18.2-27 35-12.8 17-32.6 42.6-43.6 56.8-11 14.4-29.2 38-40.4 52.6-11.2 14.8-24.4 32-29.4 38.2-5 6.4-17.6 22.8-27.8 36.4-10.4 13.6-23.4 30.4-28.6 37.2-9.2 12-11.2 16.4-8.2 19.2 1.6 1.8-3 2.6 37.8-7.4zm248.8-553.8c0-53-43-96-96-96-53 0-96 43-96 96 0 53 43 96 96 96 53 0 96-43 96-96z"/>
</svg>
